<svg id="Layer_1" enable-background="new 0 0 482.014 482.014" height="512" viewBox="0 0 482.014 482.014" width="512" xmlns="http://www.w3.org/2000/svg"><path d="m481.8 175.834v227.874c0 29.214-23.767 52.981-52.98 52.981h-375.839c-29.214.001-52.981-23.767-52.981-52.981v-263.885c0-29.214 23.767-52.981 52.981-52.981h214.019c4.971 0 9 4.029 9 9s-4.029 9-9 9h-214.019c-19.289-.001-34.981 15.692-34.981 34.981v26.685l205.729 99.909c10.896 5.292 23.381 5.261 34.25-.087l117.049-57.571c4.462-2.193 9.854-.356 12.049 4.104 2.193 4.461.356 9.854-4.104 12.049l-117.049 57.571c-15.874 7.808-34.119 7.866-50.058.126l-197.866-96.091v217.19c0 19.289 15.692 34.981 34.981 34.981h375.838c19.288 0 34.98-15.692 34.98-34.981v-227.874c0-4.971 4.029-9 9-9s9.001 4.03 9.001 9zm-341.223 127.551-87.712 87.712c-5.689 5.688-1.581 15.364 6.364 15.364 2.303 0 4.606-.879 6.364-2.636l87.712-87.712c3.515-3.515 3.515-9.214 0-12.729-3.515-3.513-9.214-3.513-12.728.001zm200.647 0c-3.516-3.514-9.213-3.514-12.729 0-3.515 3.515-3.515 9.214 0 12.729l87.712 87.712c3.517 3.515 9.213 3.514 12.729 0 3.515-3.515 3.515-9.214 0-12.729zm-23.297-226.38 152.204-51.197c7.035-2.367 13.768 4.358 11.399 11.399l-51.197 152.205c-2.517 7.486-12.809 8.314-16.492 1.327l-33.561-63.682-63.68-33.56c-6.974-3.674-6.17-13.971 1.327-16.492zm25.65 10.364 41.692 21.972 30.164-30.164c3.516-3.514 9.213-3.514 12.729 0 3.515 3.515 3.515 9.214 0 12.729l-30.164 30.164 21.972 41.693 38.722-115.115z"/></svg>